<svg xmlns="http://www.w3.org/2000/svg" width="84.848" height="134.531" viewBox="0 0 84.848 134.531">
  <g id="chevron1" transform="translate(-82.083)">
    <path id="Path_14" data-name="Path 14" d="M121.743,67.309l41.991-41.993a10.63,10.63,0,0,0,3.2-7.82,10.627,10.627,0,0,0-3.2-7.819L157.254,3.2a11.163,11.163,0,0,0-15.639,0L85.281,59.445a11.16,11.16,0,0,0,0,15.64l56.334,56.249a11.161,11.161,0,0,0,15.639,0l6.479-6.48a10.574,10.574,0,0,0,3.2-7.777,10.865,10.865,0,0,0-3.2-7.862Z" fill="#fff"/>
  </g>
</svg>
