<svg width="134" height="138" viewBox="0 0 134 138" fill="none" xmlns="http://www.w3.org/2000/svg">
<g filter="url(#filter0_d)">
<path d="M102.842 64.1667C103.815 65.5678 105.211 66.6213 106.825 67.1733C108.439 67.7254 110.188 67.7471 111.815 67.2353C113.442 66.7235 114.864 65.7051 115.871 64.3285C116.879 62.9519 117.421 61.2894 117.417 59.5833C117.421 57.8773 116.879 56.2147 115.871 54.8382C114.864 53.4616 113.442 52.4431 111.815 51.9314C110.188 51.4196 108.439 51.4413 106.825 51.9933C105.211 52.5454 103.815 53.5988 102.842 55H99.0835C99.0835 47.8042 96.7918 41.25 92.6668 35.7958L98.8085 29.6542C101.375 30.1125 103.988 29.3792 105.958 27.5C109.029 24.3375 109.029 19.25 105.958 16.0417C102.796 12.9708 97.7085 12.9708 94.5002 16.0417C92.621 18.0125 91.8876 20.625 92.346 23.1917L86.2043 29.3333C81.9877 26.1708 77.0377 24.0625 71.5835 23.2833V16.8667C72.9846 15.8934 74.0381 14.4979 74.5901 12.8836C75.1422 11.2694 75.1639 9.52098 74.6521 7.89354C74.1404 6.2661 73.1219 4.84479 71.7453 3.83704C70.3688 2.82929 68.7062 2.28783 67.0002 2.29167C65.2941 2.28783 63.6315 2.82929 62.255 3.83704C60.8784 4.84479 59.86 6.2661 59.3482 7.89354C58.8364 9.52098 58.8581 11.2694 59.4102 12.8836C59.9622 14.4979 61.0157 15.8934 62.4168 16.8667V23.2833C58.2918 23.8792 54.4418 25.2083 50.9585 27.225L45.871 19.9375C46.7418 17.5542 46.5126 14.8042 44.9543 12.6042C44.3502 11.7395 43.5814 11.0025 42.6921 10.4354C41.8027 9.86823 40.8102 9.48206 39.7715 9.299C38.7327 9.11593 37.668 9.13956 36.6383 9.36852C35.6087 9.59749 34.6343 10.0273 33.771 10.6333C30.1502 13.1542 29.2335 18.15 31.8002 21.7708C33.3585 24.0167 35.8335 25.2083 38.3543 25.2083L43.7626 32.9083C41.7918 34.8792 40.2335 37.0792 38.9043 39.5083C37.4595 38.9438 35.8825 38.8079 34.3624 39.1168C32.8422 39.4257 31.4434 40.1664 30.3335 41.25C27.2627 44.4583 27.2627 49.5 30.3335 52.7083C31.6627 53.9458 33.2668 54.6792 34.9168 55C34.9168 57.475 35.2376 59.8583 35.7418 62.15L29.7377 63.7542C27.8127 62.15 25.1543 61.4625 22.496 62.15C20.4417 62.7092 18.6936 64.0615 17.6364 65.9095C16.5791 67.7575 16.2993 69.9499 16.8585 72.0042C17.4177 74.0585 18.77 75.8065 20.618 76.8638C22.466 77.921 24.6583 78.2008 26.7127 77.6417C29.3252 76.9083 31.296 74.9833 32.121 72.6L39.0418 70.7208C41.1043 74.3417 43.8543 77.55 47.0627 80.2083L42.021 89.375C39.5002 89.7417 37.2085 91.1625 35.8793 93.5917C35.3797 94.5186 35.0676 95.5348 34.9608 96.5824C34.854 97.6299 34.9545 98.6882 35.2567 99.6969C35.5589 100.706 36.0568 101.645 36.722 102.461C37.3871 103.277 38.2066 103.955 39.1335 104.454C40.0604 104.954 41.0766 105.266 42.1242 105.373C43.1717 105.48 44.23 105.379 45.2387 105.077C46.2474 104.775 47.1867 104.277 48.0029 103.612C48.8192 102.946 49.4964 102.127 49.996 101.2C51.2793 98.8167 51.2335 96.0667 50.0877 93.8208L54.9918 84.7917C58.7043 86.2583 62.7377 87.0833 67.0002 87.0833H67.8252C67.2293 88.275 67.0002 89.65 67.0002 91.1167C67.3668 95.5625 71.2168 98.8625 75.6168 98.5417C80.0168 98.2208 83.3626 94.325 83.0418 89.925C82.8585 87.6333 81.7127 85.6167 80.0627 84.2875C82.2168 83.325 84.2793 82.0875 86.2043 80.6667L96.9293 91.3917C96.471 93.9584 97.2043 96.5708 99.0835 98.5417C102.292 101.613 107.333 101.613 110.542 98.5417C113.75 95.4708 113.613 90.2917 110.542 87.0833C108.571 85.2042 105.958 84.4708 103.392 84.9292L92.6668 74.2042C94.9127 71.225 96.6543 67.8333 97.7543 64.1667H102.842ZM60.1252 55C56.321 55 53.2502 51.9292 53.2502 48.125C53.2502 44.3208 56.321 41.25 60.1252 41.25C63.9293 41.25 67.0002 44.3208 67.0002 48.125C67.0002 51.9292 63.9293 55 60.1252 55ZM76.1668 68.75C73.646 68.75 71.5835 66.6875 71.5835 64.1667C71.5835 61.6458 73.646 59.5833 76.1668 59.5833C78.6876 59.5833 80.7502 61.6458 80.7502 64.1667C80.7502 66.6875 78.6876 68.75 76.1668 68.75Z" fill="#F8E7B3"/>
</g>
<defs>
<filter id="filter0_d" x="-4" y="0" width="142" height="142" filterUnits="userSpaceOnUse" color-interpolation-filters="sRGB">
<feFlood flood-opacity="0" result="BackgroundImageFix"/>
<feColorMatrix in="SourceAlpha" type="matrix" values="0 0 0 0 0 0 0 0 0 0 0 0 0 0 0 0 0 0 127 0"/>
<feOffset dy="16"/>
<feGaussianBlur stdDeviation="8"/>
<feColorMatrix type="matrix" values="0 0 0 0 0 0 0 0 0 0 0 0 0 0 0 0 0 0 0.1 0"/>
<feBlend mode="normal" in2="BackgroundImageFix" result="effect1_dropShadow"/>
<feBlend mode="normal" in="SourceGraphic" in2="effect1_dropShadow" result="shape"/>
</filter>
</defs>
</svg>
